<!DOCTYPE svg PUBLIC "-//W3C//DTD SVG 20010904//EN" "http://www.w3.org/TR/2001/REC-SVG-20010904/DTD/svg10.dtd">
<svg version="1.0" xmlns="http://www.w3.org/2000/svg" width="88px" height="91px" viewBox="0 0 880 910" preserveAspectRatio="xMidYMid meet">
<g id="layer101" fill="#542e16" stroke="none">
 <path d="M275 861 c-16 -4 -39 -12 -50 -18 -33 -19 -88 -81 -81 -92 4 -6 30 -11 57 -11 49 0 49 0 35 -22 -36 -56 -60 -224 -33 -233 6 -3 112 -6 235 -7 204 -3 222 -2 222 14 0 16 2 16 29 0 64 -36 130 32 116 120 -15 86 -106 137 -155 88 -20 -20 -20 -20 -35 10 l-16 30 51 0 c42 0 50 3 50 18 0 29 -63 82 -115 98 -51 15 -254 18 -310 5z m469 -202 c46 -55 35 -139 -18 -139 -54 0 -94 95 -62 145 22 33 49 32 80 -6z"/>
 <path d="M320 430 c-30 -30 -25 -47 22 -71 53 -27 144 -23 185 7 36 27 38 38 12 63 -20 18 -24 19 -50 6 -36 -19 -82 -19 -119 0 -28 14 -31 14 -50 -5z"/>
 <path d="M220 325 l-23 -25 23 -25 c53 -56 175 -91 263 -74 60 11 104 31 148 69 l34 29 -26 27 -27 27 -34 -26 c-47 -37 -85 -49 -150 -48 -56 0 -116 20 -164 56 -19 14 -22 13 -44 -10z"/>
 <path d="M120 223 l-22 -28 39 -33 c89 -76 230 -120 340 -108 73 8 151 39 217 87 61 43 70 68 34 93 -20 14 -24 13 -59 -15 -20 -16 -64 -42 -96 -56 -49 -23 -72 -28 -143 -28 -99 0 -148 17 -227 76 -29 21 -54 39 -57 39 -2 0 -14 -12 -26 -27z"/>
 </g>
<g id="layer102" fill="#685547" stroke="none">
 <path d="M251 817 c-19 -7 -36 -18 -39 -25 -3 -9 43 -12 213 -12 187 1 215 3 205 15 -7 8 -29 19 -49 25 -50 14 -288 12 -330 -3z"/>
 <path d="M280 725 c-6 -7 -13 -21 -14 -28 -1 -8 -7 -21 -13 -28 -15 -18 -37 -134 -30 -154 6 -13 35 -15 205 -15 l198 0 -7 68 c-7 66 -26 121 -52 155 -12 15 -32 17 -144 17 -102 0 -133 -3 -143 -15z"/>
 <path d="M320 430 c-30 -30 -25 -47 22 -71 53 -27 144 -23 185 7 36 27 38 38 12 63 -20 18 -24 19 -50 6 -36 -19 -82 -19 -119 0 -28 14 -31 14 -50 -5z"/>
 <path d="M220 325 l-23 -25 23 -25 c53 -56 175 -91 263 -74 60 11 104 31 148 69 l34 29 -26 27 -27 27 -34 -26 c-47 -37 -85 -49 -150 -48 -56 0 -116 20 -164 56 -19 14 -22 13 -44 -10z"/>
 <path d="M120 223 l-22 -28 39 -33 c89 -76 230 -120 340 -108 73 8 151 39 217 87 61 43 70 68 34 93 -20 14 -24 13 -59 -15 -20 -16 -64 -42 -96 -56 -49 -23 -72 -28 -143 -28 -99 0 -148 17 -227 76 -29 21 -54 39 -57 39 -2 0 -14 -12 -26 -27z"/>
 </g>
<g id="layer103" fill="#c42228" stroke="none">
 <path d="M263 817 c-18 -7 -38 -18 -45 -25 -10 -10 30 -12 205 -12 119 1 217 3 217 6 0 3 -21 14 -46 24 -38 17 -67 20 -172 19 -70 0 -141 -6 -159 -12z"/>
 <path d="M278 718 c-7 -13 -13 -25 -14 -28 0 -3 -8 -21 -16 -40 -9 -19 -18 -60 -20 -90 l-3 -55 199 -3 199 -2 -5 65 c-4 43 -15 84 -33 120 l-28 55 -133 0 c-128 0 -134 -1 -146 -22z"/>
 <path d="M320 430 c-30 -30 -25 -47 22 -71 53 -27 144 -23 185 7 36 27 38 38 12 63 -20 18 -24 19 -50 6 -36 -19 -82 -19 -119 0 -28 14 -31 14 -50 -5z"/>
 <path d="M220 325 l-23 -25 23 -25 c53 -56 175 -91 263 -74 60 11 104 31 148 69 l34 29 -26 27 -27 27 -34 -26 c-47 -37 -85 -49 -150 -48 -56 0 -116 20 -164 56 -19 14 -22 13 -44 -10z"/>
 <path d="M121 223 c-20 -24 -20 -27 -5 -45 10 -10 23 -18 29 -18 7 0 15 -6 18 -14 9 -23 128 -76 197 -87 119 -20 230 8 334 82 61 43 70 68 34 93 -20 14 -24 13 -59 -15 -20 -16 -64 -42 -96 -56 -49 -23 -72 -28 -143 -28 -99 0 -148 17 -227 76 -29 21 -54 39 -57 39 -2 0 -14 -12 -25 -27z"/>
 </g>
<g id="layer104" fill="#ae3447" stroke="none">
 <path d="M263 817 c-18 -7 -38 -18 -45 -25 -10 -10 30 -12 205 -12 119 1 217 3 217 6 0 3 -21 14 -46 24 -38 17 -67 20 -172 19 -70 0 -141 -6 -159 -12z"/>
 <path d="M278 718 c-7 -13 -13 -25 -14 -28 0 -3 -8 -21 -16 -40 -9 -19 -18 -60 -20 -90 l-3 -55 199 -3 199 -2 -5 65 c-4 43 -15 84 -33 120 l-28 55 -133 0 c-128 0 -134 -1 -146 -22z"/>
 <path d="M323 434 c-17 -15 -17 -15 2 -5 13 6 26 6 38 -1 10 -5 21 -8 23 -5 2 2 -7 9 -20 15 -19 8 -28 7 -43 -4z"/>
 <path d="M435 420 l-40 -7 37 -2 c20 0 40 4 43 9 3 6 5 9 3 9 -2 -1 -21 -5 -43 -9z"/>
 <path d="M590 335 c-7 -8 -8 -15 -2 -15 5 0 15 7 22 15 7 8 8 15 2 15 -5 0 -15 -7 -22 -15z"/>
 <path d="M200 301 c0 -9 49 -56 53 -50 1 2 -10 16 -25 31 -15 15 -28 23 -28 19z"/>
 <path d="M128 233 c-27 -32 -28 -40 -5 -59 22 -19 22 -19 4 2 -16 20 -16 22 3 44 17 20 22 21 37 9 16 -13 17 -12 4 4 -7 9 -17 17 -21 17 -4 0 -14 -8 -22 -17z"/>
 <path d="M731 223 c12 -20 12 -26 0 -45 -13 -21 -13 -22 2 -9 10 7 17 21 17 31 0 10 -7 24 -17 31 -15 13 -15 12 -2 -8z"/>
 <path d="M413 53 c15 -2 39 -2 55 0 15 2 2 4 -28 4 -30 0 -43 -2 -27 -4z"/>
 </g>
<g id="layer105" fill="#c67037" stroke="none">
 <path d="M263 817 c-18 -7 -38 -18 -45 -25 -10 -10 30 -12 205 -12 119 1 217 3 217 6 0 3 -21 14 -46 24 -38 17 -67 20 -172 19 -70 0 -141 -6 -159 -12z"/>
 <path d="M278 718 c-7 -13 -13 -25 -14 -28 0 -3 -8 -21 -16 -40 -9 -19 -18 -60 -20 -90 l-3 -55 199 -3 199 -2 -5 65 c-4 43 -15 84 -33 120 l-28 55 -133 0 c-128 0 -134 -1 -146 -22z"/>
 </g>

</svg>