<?xml version="1.0" standalone="no"?>
<!DOCTYPE svg PUBLIC "-//W3C//DTD SVG 20010904//EN"
 "http://www.w3.org/TR/2001/REC-SVG-20010904/DTD/svg10.dtd">
<svg version="1.0" xmlns="http://www.w3.org/2000/svg"
 width="70.926414pt" height="81.692517pt" viewBox="0 0 70.926414 81.692517"
 preserveAspectRatio="xMidYMid meet">
<metadata>
Created by potrace 1.12, written by Peter Selinger 2001-2015
</metadata>
<g transform="translate(-9.744589,85.705580) scale(0.100000,-0.100000)"
fill="#000000" stroke="none">
<path d="M346 850 c-61 -11 -158 -59 -210 -103 l-39 -33 25 -28 24 -29 55 42
c74 56 136 76 234 76 89 -1 162 -27 235 -85 l39 -31 21 21 c31 31 25 45 -36
89 -103 74 -228 103 -348 81z"/>
<path d="M383 709 c-61 -8 -130 -39 -163 -74 l-24 -26 25 -24 25 -25 34 25
c19 14 59 33 87 41 68 20 144 6 204 -38 l42 -30 25 26 c25 24 25 26 9 44 -28
31 -113 73 -164 80 -27 4 -71 5 -100 1z"/>
<path d="M338 549 c-43 -22 -47 -40 -18 -69 19 -19 22 -19 43 -5 27 19 94 19
127 0 22 -12 27 -11 48 7 32 31 28 43 -21 67 -55 27 -129 27 -179 0z"/>
<path d="M190 382 c0 -62 22 -152 46 -189 14 -23 14 -23 -35 -23 -27 0 -53 -5
-57 -12 -11 -17 77 -95 122 -107 58 -16 261 -14 319 3 52 16 115 69 115 98 0
15 -8 18 -50 18 l-51 0 16 30 c15 30 15 30 35 10 49 -49 140 2 155 88 14 88
-52 156 -116 120 -28 -16 -29 -16 -29 2 0 19 -9 20 -235 20 l-235 0 0 -58z
m430 -2 c0 -46 -21 -130 -32 -130 -6 0 -8 -6 -5 -13 3 -7 -1 -21 -9 -32 -12
-17 -14 -17 -14 -2 0 9 5 17 11 17 5 0 7 4 4 10 -3 5 1 20 9 32 9 13 18 49 22
81 l7 58 -192 -3 c-105 -2 -191 0 -191 5 0 4 88 7 195 7 l195 0 0 -30z m138
-2 c22 -22 14 -94 -14 -127 -30 -36 -46 -39 -75 -10 -17 17 -20 29 -16 61 9
67 70 111 105 76z m-521 -60 c-2 -13 -4 -5 -4 17 -1 22 1 32 4 23 2 -10 2 -28
0 -40z m26 -65 c-6 -16 -5 -17 12 -3 17 14 18 13 12 -3 -3 -9 -2 -28 3 -42 9
-24 10 -24 135 -22 69 1 125 -2 125 -6 0 -4 -58 -7 -128 -6 l-128 1 -22 39
c-13 22 -20 44 -17 49 10 16 15 11 8 -7z m17 -132 c0 -4 -12 -7 -27 -5 -25 4
-24 3 7 -11 33 -14 34 -15 5 -9 -16 3 -37 12 -45 20 -12 12 -10 14 23 14 20 0
37 -4 37 -9z m310 -10 c0 -23 -39 -29 -190 -31 -146 -1 -122 7 32 12 78 2 132
8 139 15 9 9 -24 12 -132 12 -78 1 -145 4 -148 6 -2 3 64 5 147 5 142 0 152
-1 152 -19z m50 14 c0 -2 -8 -9 -18 -14 -14 -8 -19 -6 -19 5 0 7 9 14 19 14
10 0 18 -2 18 -5z"/>
</g>
</svg>
